{"title":"Pushing Daisies Season 2 DVDRip XviD - DiGrX","uid":9320146,"size":4768414026,"categoryP":"video","categoryS":"tv_shows","magnet":"?xt=urn:btih:6e6ddd6daf48252781f994cc78595ee0c6d17318&amp;dn=Pushing+Daisies+Season+2+DVDRip+XviD+-+DiGrX&amp;tr=udp%3A%2F%2Ftracker.openbittorrent.com%3A80&amp;tr=udp%3A%2F%2Fopen.demonii.com%3A1337&amp;tr=udp%3A%2F%2Ftracker.coppersurfer.tk%3A6969&amp;tr=udp%3A%2F%2Fexodus.desync.com%3A6969","seeders":2,"leechers":0,"uploader":"dimigeor","files":14,"time":1386536358,"description":"A DiGrX release\n\n\nPushing Daisies Season 2 DVDRip XviD - DiGrX\n\nAll episodes in XviD from DVDRip\n\nCodec ID, Format: XVID, MPEG-4\nAspect ratio, Dimension: 16:9, 640x352\nAudio: MP3, 2 Channels\n\n\n-----------------------------------------------------------------------------------\n\n\nEpisode 1 example:\n\nGeneral\nComplete name                            : 2x01 Pushing Daisies - Bzzzzzzzzz! DVDRip.avi\nFormat                                   : AVI\nFormat/Info                              : Audio Video Interleave\nFile size                                : 350 MiB\nDuration                                 : 41mn 30s\nOverall bit rate mode                    : Variable\nOverall bit rate                         : 1 178 Kbps\nWriting application                      : VirtualDubMod 1.5.10.2 (build 2540/release)\nWriting library                          : VirtualDubMod build 2540/release\n\nVideo\nID                                       : 0\nFormat                                   : MPEG-4 Visual\nFormat profile                           : Advanced Simple@L5\nFormat settings, BVOP                    : 1\nFormat settings, QPel                    : No\nFormat settings, GMC                     : No warppoints\nFormat settings, Matrix                  : Default (H.263)\nMuxing mode                              : Packed bitstream\nCodec ID                                 : XVID\nCodec ID/Hint                            : XviD\nDuration                                 : 41mn 30s\nBit rate                                 : 1 036 Kbps\nWidth                                    : 640 pixels\nHeight                                   : 352 pixels\nDisplay aspect ratio                     : 16:9\nFrame rate                               : 25.000 fps\nColor space                              : YUV\nChroma subsampling                       : 4:2:0\nBit depth                                : 8 bits\nScan type                                : Progressive\nCompression mode                         : Lossy\nBits/(Pixel*Frame)                       : 0.184\nStream size                              : 307 MiB (88%)\nWriting library                          : XviD 1.2.1 (UTC 2008-12-04)\n\nAudio\nID                                       : 1\nFormat                                   : MPEG Audio\nFormat version                           : Version 1\nFormat profile                           : Layer 3\nMode                                     : Joint stereo\nMode extension                           : MS Stereo\nCodec ID                                 : 55\nCodec ID/Hint                            : MP3\nDuration                                 : 41mn 30s\nBit rate mode                            : Variable\nBit rate                                 : 128 Kbps\nChannel(s)                               : 2 channels\nSampling rate                            : 48.0 KHz\nCompression mode                         : Lossy\nStream size                              : 38.5 MiB (11%)\nAlignment                                : Aligned on interleaves\nInterleave, duration                     : 24 ms (0.60 video frame)\nInterleave, preload duration             : 142 ms\nWriting library                          : LAME3.96r\nEncoding settings                        : -m j -V 4 -q 3 -lowpass 17.5 --abr 128\n\n","torrent":{"xt":"urn:btih:6e6ddd6daf48252781f994cc78595ee0c6d17318","amp;dn":"Pushing+Daisies+Season+2+DVDRip+XviD+-+DiGrX","amp;tr":["udp%3A%2F%2Ftracker.openbittorrent.com%3A80","udp%3A%2F%2Fopen.demonii.com%3A1337","udp%3A%2F%2Ftracker.coppersurfer.tk%3A6969","udp%3A%2F%2Fexodus.desync.com%3A6969"],"infoHash":"6e6ddd6daf48252781f994cc78595ee0c6d17318","infoHashBuffer":{"type":"Buffer","data":[110,109,221,109,175,72,37,39,129,249,148,204,120,89,94,224,198,209,115,24]},"announce":[],"urlList":[]}}